<?xml version="1.0" encoding="UTF-8" standalone="no"?>
<!-- Uploaded to: SVG Repo, www.svgrepo.com, Generator: SVG Repo Mixer Tools -->

<svg
   width="800px"
   height="800px"
   viewBox="0 0 200 200"
   version="1.1"
   id="svg30"
   sodipodi:docname="logo.svg"
   inkscape:version="1.1.2 (0a00cf5339, 2022-02-04, custom)"
   xmlns:inkscape="http://www.inkscape.org/namespaces/inkscape"
   xmlns:sodipodi="http://sodipodi.sourceforge.net/DTD/sodipodi-0.dtd"
   xmlns="http://www.w3.org/2000/svg"
   xmlns:svg="http://www.w3.org/2000/svg"
   xmlns:rdf="http://www.w3.org/1999/02/22-rdf-syntax-ns#"
   xmlns:cc="http://creativecommons.org/ns#"
   xmlns:dc="http://purl.org/dc/elements/1.1/">
  <defs
     id="defs34" />
  <sodipodi:namedview
     id="namedview32"
     pagecolor="#ffffff"
     bordercolor="#cccccc"
     borderopacity="1"
     inkscape:pageshadow="0"
     inkscape:pageopacity="1"
     inkscape:pagecheckerboard="0"
     showgrid="false"
     inkscape:zoom="0.505"
     inkscape:cx="405.94059"
     inkscape:cy="408.91089"
     inkscape:window-width="1920"
     inkscape:window-height="1001"
     inkscape:window-x="-9"
     inkscape:window-y="-9"
     inkscape:window-maximized="1"
     inkscape:current-layer="svg30" />
  <title
     id="title2">artificial intelligence</title>
  <g
     id="g47229"
     style="fill:none;fill-opacity:1;stroke:#0496ff;stroke-opacity:1">
    <g
       id="g67398"
       style="fill:none;fill-opacity:1;stroke:#0496ff;stroke-opacity:1">
      <path
         d="m 107.29827,34.325357 a 18.4983,19.150539 0 1 0 -35.026129,8.60109 14.838854,15.362063 0 0 0 -7.238466,-1.940033 c -8.847013,0 -16.085478,8.201427 -16.085478,18.317907 a 18.570685,19.225476 0 0 0 4.672832,12.905798 15.377717,15.919926 0 0 0 -3.426207,-0.416316 c -10.214279,0 -18.4983,10.441206 -18.4983,23.313699 0,12.872488 8.284021,23.313698 18.4983,23.313698 a 15.377717,15.919926 0 0 0 3.46642,-0.41631 18.570685,19.225476 0 0 0 -4.672831,12.90579 c 0,10.11648 7.238465,18.31791 16.085478,18.31791 a 14.838854,15.362063 0 0 0 7.238465,-1.94003 18.4983,19.150539 0 1 0 34.985916,8.60109 c 0,-0.2831 0,-0.55787 0,-0.83264 v 0 -119.899021 0 c 0,-0.274768 0,-0.549537 0,-0.832632 z"
         fill="none"
         stroke="#220728"
         stroke-linejoin="bevel"
         stroke-width="6.54664"
         id="path4"
         style="fill:none;fill-opacity:1;stroke:#0496ff;stroke-width:6.54675;stroke-miterlimit:4;stroke-dasharray:none;stroke-opacity:1" />
      <path
         d="M 76.140698,169.42825 A 18.500059,19.15236 0 0 0 102.30373,142.34272 H 91.936638"
         fill="none"
         stroke="#220728"
         stroke-miterlimit="10"
         stroke-width="6.54664"
         id="path6"
         style="fill:none;fill-opacity:1;stroke:#0496ff;stroke-opacity:1" />
      <path
         d="M 75.336424,20.786759 A 18.4983,19.150539 0 0 1 101.49945,47.863956 H 92.555929"
         fill="none"
         stroke="#220728"
         stroke-miterlimit="10"
         stroke-width="6.54664"
         id="path8"
         style="fill:none;fill-opacity:1;stroke:#0496ff;stroke-opacity:1" />
      <polyline
         points="106 95 81 95 49.25 124.76"
         fill="none"
         stroke="#220728"
         stroke-miterlimit="10"
         stroke-width="8"
         id="polyline10"
         style="fill:none;fill-opacity:1;stroke:#0496ff;stroke-opacity:1"
         transform="matrix(0.80427391,0,0,0.83263212,22.045235,11.84429)" />
      <line
         x1="58.213432"
         y1="83.991867"
         x2="72.272141"
         y2="104.63281"
         fill="none"
         stroke="#220728"
         stroke-miterlimit="10"
         stroke-width="6.54664"
         id="line12"
         style="fill:none;fill-opacity:1;stroke:#0496ff;stroke-opacity:1" />
      <line
         x1="72.272141"
         y1="147.28856"
         x2="81.963638"
         y2="133.40858"
         fill="none"
         stroke="#220728"
         stroke-miterlimit="10"
         stroke-width="6.54664"
         id="line14"
         style="fill:none;fill-opacity:1;stroke:#0496ff;stroke-opacity:1" />
      <polyline
         points="62.45 37.49 71 51 71 71"
         fill="none"
         stroke="#220728"
         stroke-miterlimit="10"
         stroke-width="8"
         id="polyline16"
         style="fill:none;fill-opacity:1;stroke:#0496ff;stroke-opacity:1"
         transform="matrix(0.80427391,0,0,0.83263212,22.045235,11.84429)" />
    </g>
  </g>
  <line
     x1="144.29488"
     y1="95.107506"
     x2="105.68972"
     y2="95.107506"
     fill="none"
     stroke="#220728"
     stroke-miterlimit="10"
     stroke-width="6.54664"
     id="line18"
     style="fill:#02bfff;fill-opacity:1;stroke:#0496ff;stroke-opacity:1" />
  <polyline
     points="107 131 131 131 143 152.67"
     fill="none"
     stroke="#220728"
     stroke-miterlimit="10"
     stroke-width="8"
     id="polyline20"
     style="fill:none;fill-opacity:1;stroke:#0496ff;stroke-opacity:1"
     transform="matrix(0.80427391,0,0,0.83263212,22.045235,11.84429)" />
  <polyline
     points="107 70 131 70 143 48.33"
     fill="none"
     stroke="#220728"
     stroke-miterlimit="10"
     stroke-width="8"
     id="polyline22"
     style="fill:none;fill-opacity:1;stroke:#0496ff;stroke-opacity:1"
     transform="matrix(0.80427391,0,0,0.83263212,22.045235,11.84429)" />
  <ellipse
     cx="159.57608"
     cy="95.107506"
     fill="none"
     stroke="#ffc548"
     stroke-miterlimit="10"
     stroke-width="6.54664"
     id="circle24"
     style="fill:#ffb703;fill-opacity:1;stroke:#0496ff;stroke-opacity:1"
     rx="12.868382"
     ry="13.322114" />
  <ellipse
     cx="141.88205"
     cy="153.39175"
     fill="none"
     stroke="#ffc548"
     stroke-miterlimit="10"
     stroke-width="6.54664"
     id="circle26"
     style="fill:#ffb703;fill-opacity:1;stroke:#0496ff;stroke-opacity:1"
     rx="12.868382"
     ry="13.322114" />
  <ellipse
     cx="141.88205"
     cy="36.823254"
     fill="none"
     stroke="#ffc548"
     stroke-miterlimit="10"
     stroke-width="6.54664"
     id="circle28"
     style="fill:#ffb703;fill-opacity:1;stroke:#0496ff;stroke-opacity:1"
     rx="12.868382"
     ry="13.322114" />
  <metadata
     id="metadata17391">
    <rdf:RDF>
      <cc:Work
         rdf:about="">
        <dc:title>artificial intelligence</dc:title>
      </cc:Work>
    </rdf:RDF>
  </metadata>
</svg>
